<?xml version="1.0" encoding="utf-8"?>
<!-- Svg Vector Icons : http://www.onlinewebfonts.com/icon -->
<!DOCTYPE svg PUBLIC "-//W3C//DTD SVG 1.1//EN" "http://www.w3.org/Graphics/SVG/1.1/DTD/svg11.dtd">
<svg version="1.1" xmlns="http://www.w3.org/2000/svg" xmlns:xlink="http://www.w3.org/1999/xlink" x="0px" y="0px" viewBox="0 0 256 256" enable-background="new 0 0 256 256" xml:space="preserve">
<metadata> Svg Vector Icons : http://www.onlinewebfonts.com/icon </metadata>
<g> <path fill="#543c77" d="M246,206.7c0,21.6-17.7,39.3-39.3,39.3H49.3C27.7,246,10,228.3,10,206.7V49.3C10,27.7,27.7,10,49.3,10 h157.3c21.6,0,39.3,17.7,39.3,39.3V206.7L246,206.7z"/> <path fill="#ffffff" d="M74.2,61.4H141c12.3,0,22.4,2.7,29.7,8.6c7.4,5.9,11.1,14.3,11.1,25.6c0,6.9-1.7,12.8-5.2,17.7 s-8.4,8.9-14.5,11.6v0.5c8.6,1.7,15,5.9,19.2,12c4.4,6.1,6.6,14,6.6,23.4c0,5.4-1,10.6-2.9,15c-2,4.7-4.9,8.9-9.1,12 c-4.2,3.4-9.3,6.1-15.7,8.1c-6.4,2-14,3-22.9,3H74.2V61.4z M98.3,118.9h39.3c5.9,0,10.6-1.7,14.5-4.9c3.9-3.2,5.9-8.1,5.9-14.3 c0-6.9-1.7-11.8-5.2-14.8c-3.4-2.7-8.6-4.2-15-4.2H98.5L98.3,118.9z M98.3,179.4h42.5c7.4,0,13-2,17-5.7c3.9-3.7,6.1-9.1,6.1-16.2 c0-6.9-2-12-6.1-15.7c-4.2-3.7-9.8-5.4-17-5.4H98.3V179.4z"/></g>
</svg>