<?xml version="1.0" encoding="utf-8"?>
<!-- Svg Vector Icons : http://www.onlinewebfonts.com/icon -->
<!DOCTYPE svg PUBLIC "-//W3C//DTD SVG 1.1//EN" "http://www.w3.org/Graphics/SVG/1.1/DTD/svg11.dtd">
<svg version="1.1" xmlns="http://www.w3.org/2000/svg" xmlns:xlink="http://www.w3.org/1999/xlink" x="0px" y="0px" viewBox="0 0 256 256" enable-background="new 0 0 256 256" xml:space="preserve">
<metadata> Svg Vector Icons : http://www.onlinewebfonts.com/icon </metadata>
<g> <path stroke-width="10" fill-opacity="0" stroke="#f4e228"  d="M35,35h186.4v186.4H35V35z"/> <path stroke-width="10" fill-opacity="0" stroke="#040000"  d="M227.1,10H28.9C18.5,10,10,18.5,10,28.9v198.2c0,10.4,8.5,18.9,18.9,18.9h198.2c10.4,0,18.9-8.5,18.9-18.9 V28.9C246,18.5,237.5,10,227.1,10L227.1,10z M231.8,222.4c0,5.2-4.2,9.4-9.4,9.4H33.6c-5.2,0-9.4-4.2-9.4-9.4V33.6 c0-5.2,4.2-9.4,9.4-9.4h188.8c5.2,0,9.4,4.2,9.4,9.4V222.4L231.8,222.4z"/> <path stroke-width="10" fill-opacity="0" stroke="#040000"  d="M150.2,127.1v-0.9c9.9-3.3,15.6-13.2,15.6-23.6c0-19.8-16-26.9-38.7-26.9H93.5v109h36.3 c24.1,0,41.5-10.4,41.5-32.1C171.9,137.9,162.9,129.4,150.2,127.1L150.2,127.1z M111,89.3h15.1c15.6,0,23.1,4.2,23.1,15.6 c0,10.4-7.1,16.5-23.6,16.5H111V89.3z M128,171.4h-17.5v-36.8H128c17.5,0,26.9,5.2,26.9,17.5C154.9,165.3,145,171.4,128,171.4z"/></g>
</svg>