<?xml version="1.0" encoding="utf-8"?>
<!-- Svg Vector Icons : http://www.onlinewebfonts.com/icon -->
<!DOCTYPE svg PUBLIC "-//W3C//DTD SVG 1.1//EN" "http://www.w3.org/Graphics/SVG/1.1/DTD/svg11.dtd">
<svg version="1.1" xmlns="http://www.w3.org/2000/svg" xmlns:xlink="http://www.w3.org/1999/xlink" x="0px" y="0px" viewBox="0 0 256 256" enable-background="new 0 0 256 256" xml:space="preserve">
<metadata> Svg Vector Icons : http://www.onlinewebfonts.com/icon </metadata>
<g> <path fill="#f4e228" d="M35.4,35.4h185.7v185.7H35.4V35.4z"/> <path fill="#040000" d="M226.7,10.5H29.3c-10.3,0-18.8,8.5-18.8,18.8v32.9h14.1V34c0-5.2,4.2-9.4,9.4-9.4h188 c5.2,0,9.4,4.2,9.4,9.4v28.2h14.1V29.3C245.5,18.9,237.1,10.5,226.7,10.5z M231.4,222c0,5.2-4.2,9.4-9.4,9.4H34 c-5.2,0-9.4-4.2-9.4-9.4v-28.2H10.5v32.9c0,10.3,8.5,18.8,18.8,18.8h197.5c10.3,0,18.8-8.5,18.8-18.8v-32.9h-14.1V222z"/> <path fill="#f4e228" d="M24.6,76.3h206.9v103.4H24.6V76.3z"/> <path fill="#040000" d="M18.9,94.6c0,8.5,0.9,14.1,0.9,21.6c0,4.2-2.4,8.5-9.9,8.9v7.1c8,0,9.9,4.7,9.9,8.9 c0,7.5-0.9,13.2-0.9,21.6c0,12.2,4.2,16,14.1,16h5.6v-6.6h-2.4c-6.1,0-7.5-2.4-7.5-9.9c0-6.6,0.5-12.7,0.5-20.2 c0-8-2.4-11.8-7.5-12.7v-0.5c5.6-1.9,7.5-5.2,7.5-13.2c0-7.5-0.5-13.6-0.5-20.2c0-7.1,1.4-9.9,7.5-9.9h2.4v-6.6H33 C23.6,78.6,18.9,82.4,18.9,94.6L18.9,94.6z M141.6,124.2l-10.3-4.2c-6.1-2.4-12.2-5.2-12.2-11.3c0-6.1,5.2-9.9,12.7-9.9 c6.6,0,12.2,2.4,16.9,7.1l6.1-7.5c-5.6-6.1-14.1-9.4-23-9.4c-14.6,0-24.9,8.9-24.9,21.2c0,11.3,8,16.9,15.5,19.7l10.3,4.7 c7.1,3.3,12.2,5.2,12.2,12.2c0,6.6-5.2,10.8-14.6,10.8c-7.5,0-14.6-3.3-20.2-8.9l-6.1,7.1l-5.2-6.1c-4.7,5.2-9.9,8-16.9,8 c-13.6,0-22.1-11.3-22.1-29.1c0-17.9,8.9-28.7,22.1-28.7c6.1,0,10.8,2.8,15,7.1l6.6-7.5c-4.7-5.2-12.2-9.4-21.6-9.4 C63.1,88,48.1,103.1,48.1,128s14.6,39,33.8,39c9.4,0,16.9-3.8,22.6-9.9c7.1,6.1,16,9.9,25.9,9.9c16.5,0,26.8-9.9,26.8-22.1 C157.1,133.6,150.6,128.5,141.6,124.2L141.6,124.2z M194.3,124.2l-10.3-4.2c-6.1-2.4-12.2-5.2-12.2-11.3c0-6.1,5.2-9.9,12.7-9.9 c6.6,0,12.2,2.4,16.9,7.1l6.1-7.5c-5.6-6.1-14.1-9.4-23-9.4c-14.6,0-24.9,8.9-24.9,21.2c0,11.3,8,16.9,15.5,19.7l10.3,4.7 c7.1,3.3,12.2,5.2,12.2,12.2c0,6.6-5.2,10.8-14.6,10.8c-7.5,0-14.6-3.3-20.2-8.9l-7.1,7.5c7.1,7.1,16.5,11.3,27.3,11.3 c16.5,0,26.8-9.9,26.8-22.1C209.8,133.6,203.2,128.5,194.3,124.2z M236.1,116.2c0-7.5,0.9-13.2,0.9-21.6c0-12.2-4.2-16-14.1-16 h-5.6v6.6h2.8c6.1,0,7.5,2.8,7.5,9.9c0,6.6-0.5,12.7-0.5,20.2c0,8,1.9,11.8,7.5,12.7v0.5c-6.1,1.9-8,5.6-8,13.6 c0,7.5,0.5,13.6,0.5,20.2c0,7.1-1.4,9.9-7.5,9.9h-2.3v6.6h5.6c9.4,0,14.1-3.8,14.1-16c0-8.5-0.9-14.1-0.9-21.6 c0-4.2,2.3-8.9,9.9-8.9v-7.1C238,125.2,236.1,120.5,236.1,116.2L236.1,116.2z"/></g>
</svg>